<svg width="38" height="58" viewBox="0 0 38 58" fill="none" xmlns="http://www.w3.org/2000/svg">
<path fill-rule="evenodd" clip-rule="evenodd" d="M20.0234 52.5978C24.5794 52.3618 28.3526 50.2776 30.7052 46.0365C33.029 41.8471 32.9399 37.5483 30.5581 33.3728C29.5216 31.556 28.3534 29.8129 27.211 28.0586C26.8659 27.5288 26.8046 27.2293 27.4505 26.8679C28.6166 26.2154 29.7188 25.4489 30.8538 24.7401C31.0916 24.5917 31.3292 24.3076 31.5972 24.7648C33.3803 27.8064 35.6338 30.5805 36.8162 33.9625C40.5588 44.6677 33.2421 56.6134 22.0287 57.8557C14.3869 58.7022 8.34108 55.8191 4.10193 49.3345C2.93766 47.5536 1.85157 45.7216 0.691428 43.9378C0.368593 43.4414 0.323623 43.1888 0.897094 42.8327C4.92006 40.3348 8.9259 37.8086 12.9179 35.261C13.472 34.9074 13.6958 35.0102 14.0172 35.5431C15.1336 37.3946 16.2896 39.2225 17.4657 41.0368C18.2227 42.2048 19.4571 42.5945 20.5847 42.0963C21.6584 41.6217 22.2441 40.4494 21.9911 39.29C21.8857 38.8072 21.6017 38.4159 21.3471 38.0111C18.1107 32.8687 14.856 27.7379 11.6369 22.5846C8.6864 17.8614 10.9198 11.9417 16.151 10.541C19.5547 9.62975 22.9809 11.0182 24.9509 14.1073C25.9219 15.6297 25.9223 15.6304 27.4406 14.6731C27.9051 14.3802 28.3668 14.0829 28.8299 13.788C29.9909 13.0488 29.9909 13.0491 29.2392 11.8414C24.8131 4.7303 15.9742 3.28815 9.71535 8.65551C5.23072 12.5017 4.11885 19.497 7.20487 24.6142C8.30354 26.4359 9.44945 28.2298 10.6063 30.0152C10.9324 30.5184 10.9729 30.7881 10.3722 31.125C9.20665 31.7785 8.09725 32.5323 6.96723 33.2489C6.67925 33.4316 6.43604 33.6912 6.15096 33.2023C4.57989 30.5083 2.6008 28.0471 1.40064 25.1436C-3.14258 14.1525 3.83087 1.7558 15.6192 0.194546C23.0164 -0.784848 29.0234 1.94466 33.3156 8.13393C34.6636 10.0781 35.8318 12.1462 37.1219 14.1321C37.4295 14.6058 37.4412 14.8374 36.9313 15.1554C32.8842 17.68 28.8491 20.2233 24.8236 22.7823C24.3197 23.1026 24.0866 22.9959 23.7937 22.5144C22.7057 20.7259 21.5835 18.9582 20.4599 17.192C19.5491 15.7604 18.0891 15.3224 16.8757 16.0935C15.6312 16.8845 15.3962 18.3301 16.3154 19.7952C19.5991 25.0286 22.9124 30.2434 26.181 35.4863C29.0968 40.1637 26.8679 46.045 21.6774 47.4603C18.2626 48.3916 14.8248 47.0199 12.8661 43.9438C11.8671 42.3755 11.8671 42.3755 10.3016 43.3741C10.1566 43.4668 10.0118 43.5589 9.86656 43.6505C7.70222 45.0167 7.67107 45.0394 9.19139 47.1555C11.7786 50.7562 15.3381 52.5051 20.0234 52.5978Z" fill="#3E6BEC"/>
</svg>
